<?xml version="1.0" standalone="no"?>
<!DOCTYPE svg PUBLIC "-//W3C//DTD SVG 20010904//EN"
 "http://www.w3.org/TR/2001/REC-SVG-20010904/DTD/svg10.dtd">
<svg version="1.0" xmlns="http://www.w3.org/2000/svg"
 width="512.000000pt" height="512.000000pt" viewBox="0 0 512.000000 512.000000"
 preserveAspectRatio="xMidYMid meet">

<g transform="translate(0.000000,512.000000) scale(0.100000,-0.100000)"
fill="#000000" stroke="none">
<path d="M2455 4740 c-53 -17 -197 -125 -1185 -886 -619 -476 -1144 -885
-1168 -907 -189 -184 -94 -504 167 -558 53 -11 111 -6 188 17 l22 6 3 -893 3
-894 23 -56 c28 -70 99 -144 172 -178 l55 -26 782 -3 783 -3 2 783 3 783 252
3 253 2 2 -782 3 -783 775 0 c773 0 775 0 822 22 63 29 134 96 166 158 l27 50
3 914 2 913 23 -7 c127 -40 155 -42 241 -20 240 63 326 374 151 545 -20 19
-246 197 -503 395 l-467 361 -5 404 -5 405 -26 56 c-34 73 -96 134 -168 167
-74 35 -192 37 -263 5 -63 -28 -134 -96 -166 -158 -25 -46 -27 -61 -30 -203
-3 -119 -7 -152 -17 -149 -6 3 -149 110 -316 239 -351 270 -339 261 -409 282
-69 21 -121 19 -195 -4z m675 -719 l555 -428 5 423 c3 232 8 426 12 429 4 4
14 5 23 2 13 -6 15 -60 15 -451 l0 -445 535 -412 c518 -398 577 -449 518 -449
-10 0 -123 81 -250 180 l-233 179 -2 -1187 -3 -1187 -592 -3 -593 -2 0 780 0
780 -560 0 -560 0 0 -780 0 -780 -602 2 -603 3 -5 1178 -5 1177 -220 -170
c-121 -93 -227 -169 -235 -167 -8 1 -15 10 -15 20 0 20 2219 1736 2245 1736 8
0 265 -192 570 -428z"/>
</g>
</svg>
