<?xml version="1.0" standalone="no"?>
<!DOCTYPE svg PUBLIC "-//W3C//DTD SVG 20010904//EN"
 "http://www.w3.org/TR/2001/REC-SVG-20010904/DTD/svg10.dtd">
<svg version="1.0" xmlns="http://www.w3.org/2000/svg"
 width="500.000000pt" height="500.000000pt" viewBox="0 0 500.000000 500.000000"
 preserveAspectRatio="xMidYMid meet">

<g transform="translate(0.000000,500.000000) scale(0.100000,-0.100000)"
fill="#000000" stroke="none">
<path d="M2398 3526 c-94 -39 -162 -105 -193 -191 -20 -54 -30 -65 -58 -65
-42 0 -257 -96 -339 -151 -20 -13 -62 -42 -94 -63 -98 -66 -251 -228 -335
-356 -80 -121 -142 -243 -154 -300 -3 -19 -13 -53 -20 -75 -19 -58 -39 -261
-33 -339 l6 -66 -64 0 c-59 0 -67 -3 -103 -35 -57 -52 -68 -84 -46 -140 11
-30 29 -54 53 -70 36 -25 38 -25 278 -25 l242 0 -5 -58 c-6 -68 5 -95 50 -122
31 -19 58 -20 917 -20 859 0 886 1 917 20 45 27 56 54 50 122 l-5 58 239 0
c260 0 276 3 318 56 47 59 35 122 -34 183 -32 28 -42 31 -102 31 l-65 0 7 27
c21 75 -16 382 -56 455 -5 10 -9 24 -9 32 0 23 -109 237 -144 280 -18 23 -40
53 -49 68 -9 14 -56 68 -104 118 -93 98 -205 184 -336 256 -83 46 -245 114
-271 114 -27 0 -46 12 -46 29 0 26 -67 132 -103 164 -18 15 -60 41 -94 58 -77
36 -136 37 -215 5z m253 -491 c95 -15 139 -25 194 -45 71 -27 159 -69 213
-102 34 -21 66 -38 71 -38 19 0 200 -191 247 -260 64 -95 92 -149 144 -275 18
-43 42 -164 50 -250 5 -49 12 -102 15 -117 l7 -28 -1086 0 c-996 0 -1086 1
-1086 16 0 21 25 181 47 304 36 197 205 456 383 586 76 55 145 96 210 123 30
13 69 29 85 36 52 22 107 36 195 49 118 18 190 18 311 1z"/>
<path d="M2793 2921 c-107 -49 -93 -198 23 -240 22 -8 50 -22 64 -31 14 -9 44
-29 67 -44 35 -24 89 -75 153 -145 36 -40 69 -91 100 -153 41 -82 75 -117 123
-125 32 -5 40 -1 84 40 62 59 63 92 9 198 -80 156 -160 254 -296 363 -74 59
-209 136 -239 136 -11 0 -23 5 -26 10 -8 13 -13 13 -62 -9z"/>
</g>
</svg>
