<?xml version="1.0" standalone="no"?>
<!DOCTYPE svg PUBLIC "-//W3C//DTD SVG 20010904//EN"
 "http://www.w3.org/TR/2001/REC-SVG-20010904/DTD/svg10.dtd">
<svg version="1.0" xmlns="http://www.w3.org/2000/svg"
 width="512.000000pt" height="512.000000pt" viewBox="0 0 512.000000 512.000000"
 preserveAspectRatio="xMidYMid meet">

<g transform="translate(0.000000,512.000000) scale(0.100000,-0.100000)"
fill="#000000" stroke="none">
<path d="M1225 5106 c-16 -8 -269 -254 -562 -547 -517 -520 -532 -535 -538
-579 -3 -25 -5 -908 -3 -1962 l3 -1917 21 -27 c11 -15 33 -37 48 -48 l27 -21
1852 -3 c1961 -3 1950 -4 2112 43 225 65 443 215 586 404 65 86 153 264 183
373 127 447 -41 931 -421 1210 -117 86 -311 171 -438 193 -22 4 -48 9 -58 12
-16 4 -17 79 -17 1392 l0 1388 -23 34 c-12 19 -38 42 -57 51 -33 17 -118 18
-1360 18 -1095 -1 -1330 -3 -1355 -14z m2495 -1576 l0 -1290 -22 -5 c-13 -2
-54 -12 -92 -20 -305 -68 -594 -301 -743 -600 -146 -291 -149 -665 -9 -961 51
-107 103 -186 187 -283 l61 -71 -1341 0 -1341 0 0 1755 0 1755 448 0 c498 0
493 -1 539 69 l23 34 0 453 0 454 1145 0 1145 0 0 -1290z m-2590 825 l0 -245
-247 0 -248 0 245 245 c135 135 246 245 247 245 2 0 3 -110 3 -245z m2939
-2431 c97 -24 236 -93 318 -158 134 -108 239 -270 284 -441 30 -111 30 -288 0
-400 -77 -292 -296 -514 -586 -597 -105 -29 -306 -32 -404 -5 -154 42 -258 99
-367 200 -182 169 -274 396 -261 642 7 126 25 199 73 303 119 259 364 437 654
475 61 9 220 -2 289 -19z"/>
<path d="M870 3492 c-107 -57 -107 -210 0 -265 33 -16 105 -17 1187 -15 1145
3 1152 3 1179 24 50 37 68 70 68 124 0 54 -18 87 -68 124 -27 21 -34 21 -1179
24 -1107 2 -1153 1 -1187 -16z"/>
<path d="M870 2892 c-107 -57 -107 -210 0 -265 33 -16 105 -17 1187 -15 1145
3 1152 3 1179 24 50 37 68 70 68 124 0 54 -18 87 -68 124 -27 21 -34 21 -1179
24 -1107 2 -1153 1 -1187 -16z"/>
<path d="M870 2291 c-107 -56 -107 -210 0 -263 32 -17 89 -18 754 -18 l718 0
39 22 c41 23 79 84 79 128 0 48 -39 108 -84 129 -42 21 -56 21 -757 21 -676 0
-716 -1 -749 -19z"/>
<path d="M870 1691 c-107 -56 -107 -210 0 -263 32 -17 89 -18 754 -18 l718 0
39 22 c41 23 79 84 79 128 0 48 -39 108 -84 129 -42 21 -56 21 -757 21 -676 0
-716 -1 -749 -19z"/>
<path d="M870 1091 c-107 -56 -107 -210 0 -263 32 -17 89 -18 754 -18 l718 0
39 22 c41 23 79 84 79 128 0 48 -39 108 -84 129 -42 21 -56 21 -757 21 -676 0
-716 -1 -749 -19z"/>
<path d="M3800 1648 c-69 -47 -75 -64 -78 -228 l-3 -149 -155 -3 -154 -3 -36
-37 c-68 -67 -55 -181 25 -230 32 -21 51 -23 179 -26 l142 -4 0 -132 c0 -119
2 -137 23 -176 54 -103 196 -107 257 -8 17 29 20 51 20 176 l0 142 133 0 c118
0 138 3 177 23 55 28 81 63 87 118 5 52 -18 102 -60 133 -25 18 -47 22 -180
26 l-152 5 -5 152 c-4 133 -8 155 -26 180 -45 62 -135 81 -194 41z"/>
</g>
</svg>
