<?xml version="1.0" standalone="no"?>
<!DOCTYPE svg PUBLIC "-//W3C//DTD SVG 20010904//EN"
 "http://www.w3.org/TR/2001/REC-SVG-20010904/DTD/svg10.dtd">
<svg version="1.0" xmlns="http://www.w3.org/2000/svg"
 width="512.000000pt" height="512.000000pt" viewBox="0 0 512.000000 512.000000"
 preserveAspectRatio="xMidYMid meet">

<g transform="translate(0.000000,512.000000) scale(0.100000,-0.100000)"
fill="#000000" stroke="none">
<path d="M120 5098 c-24 -13 -53 -36 -64 -51 l-21 -28 0 -2459 0 -2459 21 -28
c11 -15 40 -38 64 -50 l44 -23 1782 0 c1233 0 1791 3 1811 11 42 15 92 68 103
109 6 22 10 387 10 970 l0 935 -170 -170 -170 -170 0 -672 0 -673 -1585 0
-1585 0 0 2220 0 2220 1585 0 1585 0 0 -545 c0 -300 4 -545 8 -545 4 0 81 73
170 163 l162 163 0 475 c0 280 -4 488 -10 509 -11 41 -61 94 -103 109 -20 8
-578 11 -1811 11 l-1782 0 -44 -22z"/>
<path d="M814 4366 c-99 -43 -107 -177 -14 -228 33 -17 86 -18 1148 -18 1229
0 1152 -4 1192 63 26 41 25 91 0 132 -43 69 31 65 -1192 65 -900 -1 -1109 -3
-1134 -14z"/>
<path d="M4664 4240 c-112 -23 -96 -9 -1145 -1058 -761 -762 -1002 -1009
-1022 -1048 -30 -58 -187 -573 -187 -614 0 -29 27 -60 53 -60 31 0 551 160
607 186 47 23 202 173 1057 1028 1140 1139 1058 1044 1058 1216 0 81 -4 103
-26 150 -68 144 -243 232 -395 200z"/>
<path d="M820 3683 c-42 -15 -90 -82 -90 -125 0 -33 35 -85 72 -108 32 -20 53
-20 1141 -20 1229 0 1154 -4 1197 65 40 64 15 146 -53 178 -32 16 -128 17
-1144 16 -609 0 -1115 -3 -1123 -6z"/>
<path d="M793 2979 c-64 -41 -78 -124 -31 -184 44 -57 14 -55 959 -55 l872 0
131 130 131 130 -1015 0 c-1001 0 -1015 -1 -1047 -21z"/>
<path d="M794 2291 c-17 -10 -39 -35 -48 -56 -24 -50 -14 -96 30 -140 l35 -35
647 0 648 0 12 48 c7 26 28 82 46 125 l34 77 -687 0 c-654 0 -687 -1 -717 -19z"/>
<path d="M838 1623 c-41 -6 -95 -62 -103 -105 -9 -47 17 -104 59 -129 29 -18
61 -19 615 -19 l583 0 -6 23 c-19 65 -26 128 -20 179 l7 58 -554 -1 c-305 -1
-566 -4 -581 -6z"/>
</g>
</svg>
