<?xml version="1.0" standalone="no"?>
<!DOCTYPE svg PUBLIC "-//W3C//DTD SVG 20010904//EN"
 "http://www.w3.org/TR/2001/REC-SVG-20010904/DTD/svg10.dtd">
<svg version="1.0" xmlns="http://www.w3.org/2000/svg"
 width="512.000000pt" height="512.000000pt" viewBox="0 0 512.000000 512.000000"
 preserveAspectRatio="xMidYMid meet">

<g transform="translate(0.000000,512.000000) scale(0.100000,-0.100000)"
fill="#000000" stroke="none">
<path d="M1288 5099 c-23 -12 -46 -35 -58 -59 -18 -36 -20 -58 -20 -280 l0
-240 -90 0 c-112 0 -159 -20 -190 -80 -19 -38 -20 -57 -20 -730 l0 -690 -95 0
c-154 0 -123 33 -475 -495 -169 -254 -315 -475 -324 -492 -14 -29 -16 -122
-16 -973 0 -923 0 -942 20 -980 13 -26 34 -47 60 -60 39 -20 53 -20 2480 -20
2427 0 2441 0 2480 20 26 13 47 34 60 60 20 38 20 57 20 980 0 851 -2 944 -16
973 -9 17 -155 238 -324 492 -351 526 -321 495 -470 495 l-90 0 0 690 c0 673
-1 692 -20 730 -31 60 -78 80 -190 80 l-90 0 0 240 c0 222 -2 244 -20 280 -13
26 -34 47 -60 60 -39 20 -56 20 -1277 20 -1213 -1 -1239 -1 -1275 -21z m2332
-429 l0 -150 -1055 0 -1055 0 0 150 0 150 1055 0 1055 0 0 -150z m300 -1500
l0 -1050 -390 0 c-372 0 -393 -1 -430 -20 -26 -13 -47 -34 -60 -60 -18 -36
-20 -58 -20 -280 l0 -240 -455 0 -455 0 0 240 c0 222 -2 244 -20 280 -13 26
-34 47 -60 60 -37 19 -58 20 -430 20 l-390 0 0 1050 0 1050 1355 0 1355 0 0
-1050z m-3010 -750 l0 -300 -240 0 -240 0 200 300 200 300 40 0 40 0 0 -300z
m3580 0 l200 -300 -235 0 -235 0 0 300 0 300 35 0 c35 0 36 -2 235 -300z
m-2680 -840 c0 -222 2 -244 20 -280 13 -26 34 -47 60 -60 38 -19 58 -20 675
-20 617 0 637 1 675 20 26 13 47 34 60 60 18 36 20 58 20 280 l0 240 750 0
750 0 0 -760 0 -760 -2260 0 -2260 0 0 760 0 760 755 0 755 0 0 -240z"/>
<path d="M1588 3899 c-43 -22 -78 -81 -78 -129 0 -50 35 -107 80 -130 38 -20
57 -20 975 -20 918 0 937 0 975 20 45 23 80 80 80 130 0 50 -35 107 -80 130
-38 20 -56 20 -977 20 -914 -1 -939 -1 -975 -21z"/>
<path d="M1588 3299 c-43 -22 -78 -81 -78 -129 0 -50 35 -107 80 -130 38 -20
57 -20 975 -20 918 0 937 0 975 20 45 23 80 80 80 130 0 50 -35 107 -80 130
-38 20 -56 20 -977 20 -914 -1 -939 -1 -975 -21z"/>
<path d="M1588 2699 c-43 -22 -78 -81 -78 -129 0 -50 35 -107 80 -130 38 -19
58 -20 675 -20 617 0 637 1 675 20 45 23 80 80 80 130 0 50 -35 107 -80 130
-38 19 -57 20 -677 20 -615 -1 -639 -2 -675 -21z"/>
</g>
</svg>
