<?xml version="1.0" standalone="no"?>
<!DOCTYPE svg PUBLIC "-//W3C//DTD SVG 20010904//EN"
 "http://www.w3.org/TR/2001/REC-SVG-20010904/DTD/svg10.dtd">
<svg version="1.0" xmlns="http://www.w3.org/2000/svg"
 width="512.000000pt" height="512.000000pt" viewBox="0 0 512.000000 512.000000"
 preserveAspectRatio="xMidYMid meet">

<g transform="translate(0.000000,512.000000) scale(0.100000,-0.100000)"
fill="#000000" stroke="none">
<path d="M60 2560 l0 -2560 1240 0 1240 0 0 85 0 85 -1155 0 -1155 0 0 2390 0
2390 1240 0 1240 0 0 -600 0 -600 595 0 595 0 0 -765 0 -765 85 0 85 0 0 828
0 827 -623 623 -622 622 -1383 0 -1382 0 0 -2560z m3270 1815 l445 -445 -448
0 -447 0 0 445 c0 245 1 445 3 445 1 0 202 -200 447 -445z"/>
<path d="M985 3923 c-65 -16 -88 -98 -39 -144 l26 -24 429 -3 c481 -3 500 -1
526 53 16 32 16 38 0 69 -12 26 -26 37 -54 45 -38 11 -846 14 -888 4z"/>
<path d="M946 3219 c-26 -21 -35 -65 -20 -104 18 -46 -5 -45 1141 -45 849 0
1083 3 1103 13 53 27 62 96 18 137 -22 20 -31 20 -1119 20 -1094 0 -1096 0
-1123 -21z"/>
<path d="M945 2535 c-34 -33 -34 -87 0 -120 l24 -25 1095 0 1095 0 27 24 c21
18 28 32 28 61 0 29 -7 43 -28 61 l-27 24 -1095 0 -1095 0 -24 -25z"/>
<path d="M4450 2239 c-35 -15 -201 -176 -713 -687 l-668 -668 -91 -334 c-83
-304 -94 -338 -125 -373 -39 -43 -43 -82 -12 -121 31 -39 87 -36 136 7 35 31
68 42 366 123 l327 89 679 680 c678 679 679 680 696 739 20 69 15 126 -16 189
-31 61 -292 322 -353 352 -65 32 -160 34 -226 4z m286 -280 c146 -144 166
-177 140 -226 -8 -15 -69 -82 -135 -148 l-121 -120 -180 180 -180 180 132 132
c178 179 164 179 344 2z m-413 -437 l177 -177 -438 -438 -437 -437 -180 180
-180 180 435 435 c239 239 437 435 440 435 3 0 85 -80 183 -178z m-995 -995
l132 -132 -180 -49 c-99 -27 -183 -47 -186 -44 -6 7 87 358 95 358 4 0 66 -60
139 -133z"/>
<path d="M964 1866 c-51 -22 -62 -95 -21 -134 l23 -22 760 0 761 0 20 23 c42
44 31 111 -22 133 -49 20 -1474 20 -1521 0z"/>
<path d="M942 1167 c-31 -33 -29 -87 4 -118 l26 -24 608 -3 c662 -3 667 -2
691 52 14 30 5 70 -21 96 -19 19 -36 20 -653 20 l-634 0 -21 -23z"/>
</g>
</svg>
