<?xml version="1.0" standalone="no"?>
<!DOCTYPE svg PUBLIC "-//W3C//DTD SVG 20010904//EN"
 "http://www.w3.org/TR/2001/REC-SVG-20010904/DTD/svg10.dtd">
<svg version="1.0" xmlns="http://www.w3.org/2000/svg"
 width="512.000000pt" height="512.000000pt" viewBox="0 0 512.000000 512.000000"
 preserveAspectRatio="xMidYMid meet">

<g transform="translate(0.000000,512.000000) scale(0.100000,-0.100000)"
fill="#000000" stroke="none">
<path d="M0 2560 l0 -2560 1960 0 1960 0 0 503 0 503 89 56 90 56 402 -404
c221 -222 404 -404 408 -404 3 0 52 46 108 102 l102 101 -397 403 c-218 222
-398 407 -400 412 -1 5 18 42 42 82 57 93 100 195 128 307 19 74 22 114 22
248 -1 138 -5 173 -27 256 -74 279 -241 498 -494 649 l-73 43 0 461 0 461
-643 643 -642 642 -1318 0 -1317 0 0 -2560z m2420 1660 l0 -600 600 0 600 0 0
-310 0 -310 -102 6 c-416 24 -816 -219 -998 -608 -183 -390 -100 -864 203
-1170 213 -215 506 -331 795 -314 l102 6 0 -310 0 -310 -1660 0 -1660 0 0
2260 0 2260 1060 0 1060 0 0 -600z m645 40 l340 -340 -343 0 -342 0 0 340 c0
187 1 340 3 340 1 0 155 -153 342 -340z m524 -1561 c240 -38 449 -193 555
-411 55 -113 71 -184 71 -328 0 -144 -16 -215 -71 -328 -183 -374 -633 -526
-1008 -341 -185 92 -329 269 -387 475 -32 111 -32 277 0 388 58 206 203 384
387 474 149 73 297 97 453 71z"/>
<path d="M600 3160 l0 -150 1060 0 1060 0 0 150 0 150 -1060 0 -1060 0 0 -150z"/>
<path d="M600 2560 l0 -150 760 0 760 0 0 150 0 150 -760 0 -760 0 0 -150z"/>
<path d="M600 1960 l0 -150 760 0 760 0 0 150 0 150 -760 0 -760 0 0 -150z"/>
<path d="M600 1360 l0 -150 760 0 760 0 0 150 0 150 -760 0 -760 0 0 -150z"/>
</g>
</svg>
